<svg width="24" height="26" viewBox="0 0 24 26" fill="none" xmlns="http://www.w3.org/2000/svg">
<path d="M21.3055 10.0415H20.5V10H11.5V14H17.1515C16.327 16.3285 14.1115 18 11.5 18C8.1865 18 5.5 15.3135 5.5 12C5.5 8.6865 8.1865 6 11.5 6C13.0295 6 14.421 6.577 15.4805 7.5195L18.309 4.691C16.523 3.0265 14.134 2 11.5 2C5.9775 2 1.5 6.4775 1.5 12C1.5 17.5225 5.9775 22 11.5 22C17.0225 22 21.5 17.5225 21.5 12C21.5 11.3295 21.431 10.675 21.3055 10.0415Z" fill="#FFC107"/>
<path d="M2.65308 7.3455L5.93858 9.755C6.82758 7.554 8.98058 6 11.5001 6C13.0296 6 14.4211 6.577 15.4806 7.5195L18.3091 4.691C16.5231 3.0265 14.1341 2 11.5001 2C7.65908 2 4.32808 4.1685 2.65308 7.3455Z" fill="#FF3D00"/>
<path d="M11.4999 22.0001C14.0829 22.0001 16.4299 21.0116 18.2044 19.4041L15.1094 16.7851C14.1054 17.5456 12.8574 18.0001 11.4999 18.0001C8.89891 18.0001 6.69041 16.3416 5.85841 14.0271L2.59741 16.5396C4.25241 19.7781 7.61341 22.0001 11.4999 22.0001Z" fill="#4CAF50"/>
<path d="M21.3055 10.0415H20.5V10H11.5V14H17.1515C16.7555 15.1185 16.036 16.083 15.108 16.7855L15.1095 16.7845L18.2045 19.4035C17.9855 19.6025 21.5 17 21.5 12C21.5 11.3295 21.431 10.675 21.3055 10.0415Z" fill="#1976D2"/>
</svg>
