<svg width="20" height="18" viewBox="0 0 20 18" fill="none" xmlns="http://www.w3.org/2000/svg">
<path d="M18.8531 7.94062H2.84063L9.21562 1.45312C9.55312 1.11562 9.55312 0.590625 9.21562 0.253125C8.87812 -0.084375 8.35312 -0.084375 8.01562 0.253125L0.253125 8.12812C-0.084375 8.46562 -0.084375 8.99063 0.253125 9.32812L8.01562 17.2031C8.16562 17.3531 8.39062 17.4656 8.61563 17.4656C8.84062 17.4656 9.02812 17.3906 9.21562 17.2406C9.55312 16.9031 9.55312 16.3781 9.21562 16.0406L2.87812 9.62812H18.8531C19.3031 9.62812 19.6781 9.25312 19.6781 8.80312C19.6781 8.31562 19.3031 7.94062 18.8531 7.94062Z" fill="#1F2A37"/>
</svg>
